<svg xmlns="http://www.w3.org/2000/svg" viewBox="0 0 50 50" width="50" height="50">
  <path
    d="M56.531 50h36.764c3.502 0 6.613 3.041 6.705 6.539v36.766A6.854 6.854 0 0 1 93.293 100h-36.75A6.863 6.863 0 0 1 50 93.289V56.555c.084-3.443 3.088-6.457 6.531-6.555Zm3.268 17.859c-.025 3.881-.012 7.764-.031 11.646a.41.41 0 0 1-.416.508c-.467.027-.936.012-1.404.016.314.781.654 1.535 1.006 2.291.883-.029 1.891.154 2.645-.424.678-.504.895-1.4.881-2.207 0-3.943 0-7.889-.018-11.832-.887-.004-1.775-.006-2.662.002Zm10.953-.176q-.992 2.279-2.023 4.539c-.195.451-.432 1.049-.021 1.457.525.477 1.297.293 1.941.336-.447 1.129-1.035 2.201-1.412 3.357-.209.57.313 1.15.883 1.156 1.033.07 2.07 0 3.105.027.338-.756.678-1.51 1.01-2.27-.604 0-1.213.043-1.807-.076.643-1.613 1.404-3.174 2.086-4.768-.834-.098-1.777.174-2.539-.15.371-1.25 1.047-2.396 1.523-3.613-.918-.004-1.832-.01-2.746.004Zm14.209.01v1.018h-1.793v2.721c.6 0 1.197 0 1.795.012q.023 1.172 0 2.359c-.898.018-1.799 0-2.697.014-.012.906-.01 1.811 0 2.715.9.01 1.803 0 2.703 0v5.779h2.705v-5.775c1.316 0 2.631-.02 3.947 0 .463-.039.992.285.977.795a21.615 21.615 0 0 1 0 2.164.441.441 0 0 1-.414.467c-.752.055-1.506 0-2.26.025.332.781.654 1.563 1.031 2.334 1.24-.064 2.756.248 3.701-.781.898-.832.629-2.148.666-3.234-.057-1.143.223-2.434-.486-3.434-.604-.848-1.691-1.078-2.672-1.096-.059-1.367.268-2.967-.738-4.078-.938-1.051-2.447-1.055-3.744-1.004v-1.016c-.918.01-1.82.012-2.721.016Zm-9.652 1.02v2.719h1.697v8.152c-.811.014-1.623 0-2.434.01-.42.902-.83 1.809-1.238 2.715 3.023.012 6.055 0 9.07 0v-2.715c-.869 0-1.74 0-2.609-.01v-8.158h1.703v-2.721c-2.059.004-4.123 0-6.189.008Zm17.842.25c-.758.574-.51 1.625-.543 2.443.506 0 1.014.027 1.52-.018.813-.074 1.424-1.021 1.098-1.787-.256-.84-1.391-1.205-2.074-.639ZM55.273 71.43c-.137 1.781-.275 3.561-.404 5.342a4.32 4.32 0 0 1-.258 1.184c.457 1.045.914 2.09 1.402 3.125 1.094-1.463 1.5-3.307 1.613-5.098.096-1.523.266-3.045.32-4.57-.896.031-1.787.01-2.674.018Zm9.01 0 .391 4.955c.143 1.656.57 3.344 1.582 4.688.482-1.033.943-2.076 1.4-3.125a4.232 4.232 0 0 1-.273-1.19c-.129-1.775-.27-3.551-.406-5.326q-1.352-.008-2.699-.002Zm3.352 10.682c1.383.408 2.848.129 4.268.205.418-.904.834-1.811 1.24-2.721-1.42-.055-2.865.148-4.258-.209q-.639 1.357-1.256 2.725Z"
    transform="translate(-50 -50)" style="fill:#fff" />
  <path
    d="M87.65 71.439c.586.084 1.367-.238 1.814.234.074.713.02 1.43.027 2.148h-1.824q-.018-1.191-.018-2.383Z"
    transform="translate(-50 -50)" style="fill:#fff" />
  <path
    d="M59.799 67.859h2.662c.025 3.943.016 7.889.018 11.832.014.807-.195 1.703-.881 2.207-.754.586-1.758.391-2.645.424a51.267 51.267 0 0 1-1.006-2.291c.469 0 .938.012 1.404-.016a.41.41 0 0 0 .416-.508c.02-3.885-.002-7.768.031-11.648Zm10.953-.175c.914-.014 1.828 0 2.734 0-.477 1.217-1.152 2.363-1.523 3.613.766.324 1.709.053 2.539.15-.682 1.594-1.443 3.154-2.086 4.768.586.119 1.203.076 1.807.076-.332.76-.672 1.514-1.01 2.27-1.035-.018-2.072.043-3.105-.027-.57 0-1.092-.586-.883-1.156.377-1.156.965-2.229 1.412-3.357-.645-.043-1.416.141-1.941-.336-.41-.408-.172-1.006.021-1.457q1.037-2.266 2.035-4.543Zm14.209.009h2.703v1.016c1.297-.051 2.807-.047 3.744 1.004 1.006 1.111.68 2.715.738 4.078.977.018 2.068.248 2.672 1.096.709 1 .43 2.291.486 3.434-.037 1.088.232 2.402-.666 3.234-.945 1.021-2.461.709-3.701.781-.377-.764-.699-1.551-1.031-2.334.754-.021 1.508.029 2.26-.025a.441.441 0 0 0 .414-.467 21.615 21.615 0 0 0 0-2.164c.014-.51-.516-.834-.977-.795-1.316-.02-2.631 0-3.947 0v5.775h-2.705v-5.779h-2.703v-2.715c.898 0 1.799 0 2.697-.014q.025-1.172 0-2.359a67.077 67.077 0 0 0-1.795-.012v-2.721h1.793Zm2.689 3.746q0 1.191.018 2.383h1.824c0-.715.047-1.432-.027-2.148-.447-.473-1.229-.15-1.814-.234Z"
    transform="translate(-50 -50)" style="fill:#000" />
  <path
    d="M75.309 68.713h6.195v2.721h-1.703v8.158c.869.01 1.74 0 2.609.01v2.715h-9.07c.408-.906.818-1.812 1.238-2.715.811 0 1.623 0 2.434-.01V71.44h-1.697q-.012-1.367-.006-2.727Zm17.841.25c.684-.566 1.818-.195 2.074.639.326.766-.285 1.713-1.098 1.787-.506.045-1.014.02-1.52.018.033-.818-.215-1.875.543-2.443ZM55.273 71.43c.893 0 1.783.014 2.674-.021-.055 1.525-.225 3.047-.32 4.57-.113 1.791-.52 3.635-1.613 5.098a109.69 109.69 0 0 1-1.402-3.125 4.32 4.32 0 0 0 .258-1.184c.123-1.768.262-3.557.404-5.338Zm9.004 0h2.701c.137 1.775.277 3.551.406 5.326a4.232 4.232 0 0 0 .258 1.201 149.839 149.839 0 0 1-1.4 3.125c-1.012-1.35-1.439-3.037-1.582-4.688s-.252-3.313-.383-4.965Zm3.352 10.681q.619-1.367 1.25-2.725c1.393.357 2.838.154 4.258.209-.406.91-.822 1.816-1.24 2.721-1.42-.076-2.885.203-4.268-.205Z"
    transform="translate(-50 -50)" style="fill:#000" />
</svg>