<svg xmlns="http://www.w3.org/2000/svg" viewBox="0 0 50 50" width="50" height="50">
  <title>Xiaohongshu logo - Brandlogos.net</title>
  <path d="M56.531 50h36.764c3.502 0 6.613 3.041 6.705 6.539v36.766A6.854 6.854 0 0 1 93.293 100H56.543a6.863 6.863 0 0 1 -6.543 -6.711V56.555c0.084 -3.443 3.088 -6.457 6.531 -6.555Zm3.268 17.859c-0.025 3.881 -0.012 7.764 -0.031 11.646a0.41 0.41 0 0 1 -0.416 0.508c-0.467 0.027 -0.936 0.012 -1.404 0.016 0.314 0.781 0.654 1.535 1.006 2.291 0.883 -0.029 1.891 0.154 2.645 -0.424 0.678 -0.504 0.895 -1.4 0.881 -2.207 0 -3.943 0 -7.889 -0.018 -11.832 -0.887 -0.004 -1.775 -0.006 -2.662 0.002Zm10.953 -0.176q-0.992 2.279 -2.023 4.539c-0.195 0.451 -0.432 1.049 -0.021 1.457 0.525 0.477 1.297 0.293 1.941 0.336 -0.447 1.129 -1.035 2.201 -1.412 3.357 -0.209 0.57 0.313 1.15 0.883 1.156 1.033 0.07 2.07 0 3.105 0.027 0.338 -0.756 0.678 -1.51 1.01 -2.27 -0.604 0 -1.213 0.043 -1.807 -0.076 0.643 -1.613 1.404 -3.174 2.086 -4.768 -0.834 -0.098 -1.777 0.174 -2.539 -0.15 0.371 -1.25 1.047 -2.396 1.523 -3.613 -0.918 -0.004 -1.832 -0.01 -2.746 0.004Zm14.209 0.01v1.018h-1.793v2.721c0.6 0 1.197 0 1.795 0.012q0.023 1.172 0 2.359c-0.898 0.018 -1.799 0 -2.697 0.014 -0.012 0.906 -0.01 1.811 0 2.715 0.9 0.01 1.803 0 2.703 0v5.779h2.705v-5.775c1.316 0 2.631 -0.02 3.947 0 0.463 -0.039 0.992 0.285 0.977 0.795a21.615 21.615 0 0 1 0 2.164 0.441 0.441 0 0 1 -0.414 0.467c-0.752 0.055 -1.506 0 -2.26 0.025 0.332 0.781 0.654 1.563 1.031 2.334 1.24 -0.064 2.756 0.248 3.701 -0.781 0.898 -0.832 0.629 -2.148 0.666 -3.234 -0.057 -1.143 0.223 -2.434 -0.486 -3.434 -0.604 -0.848 -1.691 -1.078 -2.672 -1.096 -0.059 -1.367 0.268 -2.967 -0.738 -4.078 -0.938 -1.051 -2.447 -1.055 -3.744 -1.004v-1.016c-0.918 0.01 -1.82 0.012 -2.721 0.016Zm-9.652 1.02v2.719h1.697v8.152c-0.811 0.014 -1.623 0 -2.434 0.01 -0.42 0.902 -0.83 1.809 -1.238 2.715 3.023 0.012 6.055 0 9.07 0v-2.715c-0.869 0 -1.74 0 -2.609 -0.01V71.426h1.703v-2.721c-2.059 0.004 -4.123 0 -6.189 0.008Zm17.842 0.25c-0.758 0.574 -0.51 1.625 -0.543 2.443 0.506 0 1.014 0.027 1.52 -0.018 0.813 -0.074 1.424 -1.021 1.098 -1.787 -0.256 -0.84 -1.391 -1.205 -2.074 -0.639ZM55.273 71.43c-0.137 1.781 -0.275 3.561 -0.404 5.342a4.32 4.32 0 0 1 -0.258 1.184c0.457 1.045 0.914 2.09 1.402 3.125 1.094 -1.463 1.5 -3.307 1.613 -5.098 0.096 -1.523 0.266 -3.045 0.32 -4.57 -0.896 0.031 -1.787 0.01 -2.674 0.018Zm9.01 0 0.391 4.955c0.143 1.656 0.57 3.344 1.582 4.688 0.482 -1.033 0.943 -2.076 1.4 -3.125A4.232 4.232 0 0 1 67.383 76.758c-0.129 -1.775 -0.27 -3.551 -0.406 -5.326q-1.352 -0.008 -2.699 -0.002Zm3.352 10.682c1.383 0.408 2.848 0.129 4.268 0.205 0.418 -0.904 0.834 -1.811 1.24 -2.721 -1.42 -0.055 -2.865 0.148 -4.258 -0.209q-0.639 1.357 -1.256 2.725Z" transform="translate(-50 -50)" style="fill:#000000"/>
  <path d="M87.65 71.439c0.586 0.084 1.367 -0.238 1.814 0.234 0.074 0.713 0.02 1.43 0.027 2.148h-1.824q-0.018 -1.191 -0.018 -2.383Z" transform="translate(-50 -50)" style="fill:#000000"/>
  <path d="M59.799 67.859h2.662c0.025 3.943 0.016 7.889 0.018 11.832 0.014 0.807 -0.195 1.703 -0.881 2.207 -0.754 0.586 -1.758 0.391 -2.645 0.424 -0.352 -0.756 -0.691 -1.518 -1.006 -2.291 0.469 0 0.938 0.012 1.404 -0.016a0.41 0.41 0 0 0 0.416 -0.508c0.02 -3.885 -0.002 -7.768 0.031 -11.648Z" transform="translate(-50 -50)" style="fill:#fff"/>
  <path d="M70.752 67.684c0.914 -0.014 1.828 0 2.734 0 -0.477 1.217 -1.152 2.363 -1.523 3.613 0.766 0.324 1.709 0.053 2.539 0.15 -0.682 1.594 -1.443 3.154 -2.086 4.768 0.586 0.119 1.203 0.076 1.807 0.076 -0.332 0.76 -0.672 1.514 -1.01 2.27 -1.035 -0.018 -2.072 0.043 -3.105 -0.027 -0.57 0 -1.092 -0.586 -0.883 -1.156 0.377 -1.156 0.965 -2.229 1.412 -3.357 -0.645 -0.043 -1.416 0.141 -1.941 -0.336 -0.41 -0.408 -0.172 -1.006 0.021 -1.457q1.037 -2.266 2.035 -4.543Z" transform="translate(-50 -50)" style="fill:#fff"/>
  <path d="M84.961 67.693h2.703v1.016c1.297 -0.051 2.807 -0.047 3.744 1.004 1.006 1.111 0.68 2.715 0.738 4.078 0.977 0.018 2.068 0.248 2.672 1.096 0.709 1 0.43 2.291 0.486 3.434 -0.037 1.088 0.232 2.402 -0.666 3.234 -0.945 1.021 -2.461 0.709 -3.701 0.781 -0.377 -0.764 -0.699 -1.551 -1.031 -2.334 0.754 -0.021 1.508 0.029 2.26 -0.025a0.441 0.441 0 0 0 0.414 -0.467 21.615 21.615 0 0 0 0 -2.164c0.014 -0.51 -0.516 -0.834 -0.977 -0.795 -1.316 -0.02 -2.631 0 -3.947 0v5.775h-2.705v-5.779h-2.703v-2.715c0.898 0 1.799 0 2.697 -0.014q0.025 -1.172 0 -2.359c-0.598 -0.01 -1.195 -0.018 -1.795 -0.012v-2.721h1.793Zm2.689 3.746q0 1.191 0.018 2.383h1.824c0 -0.715 0.047 -1.432 -0.027 -2.148 -0.447 -0.473 -1.229 -0.15 -1.814 -0.234Z" transform="translate(-50 -50)" style="fill:#fff"/>
  <path d="M75.309 68.713h6.195v2.721h-1.703v8.158c0.869 0.01 1.74 0 2.609 0.01v2.715H73.34c0.408 -0.906 0.818 -1.812 1.238 -2.715 0.811 0 1.623 0 2.434 -0.01v-8.152h-1.697q-0.012 -1.367 -0.006 -2.727Z" transform="translate(-50 -50)" style="fill:#fff"/>
  <path d="M93.15 68.963c0.684 -0.566 1.818 -0.195 2.074 0.639 0.326 0.766 -0.285 1.713 -1.098 1.787 -0.506 0.045 -1.014 0.02 -1.52 0.018 0.033 -0.818 -0.215 -1.875 0.543 -2.443Z" transform="translate(-50 -50)" style="fill:#fff"/>
  <path d="M55.273 71.43c0.893 0 1.783 0.014 2.674 -0.021 -0.055 1.525 -0.225 3.047 -0.32 4.57 -0.113 1.791 -0.52 3.635 -1.613 5.098 -0.488 -1.031 -0.945 -2.076 -1.402 -3.125a4.32 4.32 0 0 0 0.258 -1.184c0.123 -1.768 0.262 -3.557 0.404 -5.338Z" transform="translate(-50 -50)" style="fill:#fff"/>
  <path d="M64.277 71.43h2.701c0.137 1.775 0.277 3.551 0.406 5.326a4.232 4.232 0 0 0 0.258 1.201c-0.457 1.045 -0.918 2.088 -1.4 3.125 -1.012 -1.35 -1.439 -3.037 -1.582 -4.688s-0.252 -3.313 -0.383 -4.965Z" transform="translate(-50 -50)" style="fill:#fff"/>
  <path d="M67.629 82.111q0.619 -1.367 1.25 -2.725c1.393 0.357 2.838 0.154 4.258 0.209 -0.406 0.91 -0.822 1.816 -1.24 2.721 -1.42 -0.076 -2.885 0.203 -4.268 -0.205Z" transform="translate(-50 -50)" style="fill:#fff"/>
</svg>
